<?xml version="1.0" encoding="UTF-8"?>
<svg width="600px" height="505px" viewBox="0 0 600 505" version="1.1" xmlns="http://www.w3.org/2000/svg" xmlns:xlink="http://www.w3.org/1999/xlink">
    <title>阅读</title>
    <defs>
        <path d="M8.36567506,0.0681922197 C8.36567506,0.0681922197 15.0237986,12.0132723 17.178032,25.3295195 C19.3318078,38.6453089 15.610984,43.6389016 12.1844394,45.009611 C8.75743707,46.3803204 0.140961098,2.71167048 0.140961098,2.71167048" id="path-1"></path>
        <path d="M32.5990847,0.304805492 C32.5990847,0.304805492 40.0572082,37.0155606 42.1006865,43.0022883 C42.4297483,43.9661327 43.019222,44.802746 43.8315789,45.5459954 L7.35057208,51.5578947 C7.48878719,51.0421053 7.58352403,50.4508009 7.64347826,49.7620137 C8.2819222,42.4183066 0.0576659039,5.33455378 0.0576659039,5.33455378 L32.5990847,0.304805492 Z" id="path-3"></path>
        <path d="M11.6187643,0.117620137 L42.0169336,4.90800915 C42.0169336,4.90800915 33.5084668,43.2009153 34.0169336,50.4494279 C34.0645309,51.1295195 34.1455378,51.7125858 34.2691076,52.2210526 L34.2691076,52.2210526 L0.194508009,46.4823799 C0.963844394,45.7446224 1.52631579,44.9153318 1.84576659,43.9615561 C3.83157895,38.0379863 11.6187643,0.117620137 11.6187643,0.117620137 L11.6187643,0.117620137 Z" id="path-5"></path>
    </defs>
    <g id="阅读" stroke="none" stroke-width="1" fill="none" fill-rule="evenodd">
        <g id="编组" transform="translate(0.000000, 7.000000)">
            <g transform="translate(0.000000, 0.270023)">
                <path d="M239.275698,324.632998 C239.275698,311.578078 232.407048,300.12865 222.086682,293.699359 C216.390572,290.150618 213.39103,283.42476 214.788741,276.860915 C215.179588,275.02659 215.38508,273.124073 215.38508,271.173043 C215.38508,258.177162 206.277529,247.308513 194.097208,244.601419 C190.870206,243.884256 188.703158,240.882883 189.010252,237.591808 C189.147094,236.124989 189.195606,234.72087 189.046865,233.574874 C188.069748,226.049931 183.826728,221.943295 177.711854,218.589062 C174.565858,216.863204 173.021693,213.234371 173.91643,209.759314 C174.35762,208.046728 174.604302,206.249931 174.65373,204.3973 C175.023524,190.526362 167.54984,184.810114 162.358078,182.23849 C159.821693,180.981739 157.974096,178.666407 157.231762,175.935057 C155.216659,168.519039 148.202929,163.161602 140.032677,163.703478 C132.040915,164.233455 125.480732,170.52087 124.621693,178.483799 C124.614828,178.546041 124.608421,178.608284 124.602471,178.670526 C124.337941,181.401419 121.994233,183.403249 119.254188,183.271899 C118.359451,183.228879 117.449611,183.243524 116.52833,183.319039 C106.388284,184.152449 98.2583066,192.376247 97.5507551,202.525446 C97.4381693,204.140092 97.5113959,205.718124 97.7512128,207.241236 C98.3031579,210.753364 96.7516705,214.251304 93.7457208,216.148787 C88.044119,219.748787 83.6162014,225.181739 81.2912586,231.621556 C80.3914874,234.113547 78.3077346,236.007368 75.7553318,236.716751 C64.3530435,239.885629 55.9846224,250.340549 55.9846224,262.752906 C55.9846224,266.094325 56.5919451,269.29341 57.7022426,272.24627 C59.419405,276.813776 57.2107094,281.856339 52.7063616,283.733227 C40.6029291,288.776247 32.0940046,300.71492 32.0940046,314.64627 C32.0940046,320.28746 33.4903432,325.601876 35.9553318,330.263661 C39.6889703,337.323158 38.2962929,346.03849 32.3708924,351.391808 C23.9997254,358.954737 18.7393135,369.894783 18.7393135,382.065034 L18.7393135,397.12865 L242.75167,397.12865 L242.75167,382.065034 C242.75167,375.965263 238.899954,370.173959 234.342975,364.962059 C229.39103,359.298444 229.047323,351.028421 233.211167,344.762517 C237.043204,338.995927 239.275698,332.075561 239.275698,324.632998" id="Fill-7" fill="#41B093"></path>
                <path d="M322.142975,407.074554 C311.834508,402.127185 329.756705,397.777529 334.260137,385.395378 C336.322838,379.724897 332.110938,371.076384 334.899497,363.613227 C337.186911,357.491945 346.34984,352.855789 349.041373,345.837941 C351.459222,339.535423 347.389199,330.875927 350.07524,324.063112 C352.59881,317.662197 361.843661,313.185767 364.55762,306.507963 C367.184622,300.04389 363.299954,291.323066 366.062883,284.75373 C368.801098,278.242975 378.155789,273.955561 380.987368,267.490114 C383.855561,260.942288 380.240915,252.127643 383.163112,245.778444 C386.194233,239.193089 395.709565,235.199497 398.753501,228.996293 C402.008421,222.362883 398.872037,213.392174 402.086682,207.399039 C405.688513,200.684165 415.492174,197.296522 418.967689,191.664485 C423.240458,184.74 422.141602,175.840229 425.295378,170.604073 C430.387368,162.150526 436.650069,158.86357 445.488055,158.86357 C453.681648,158.86357 460.916888,162.019176 466.031304,170.760595 C469.101785,176.008192 468.310481,184.868146 472.439542,191.835652 C475.795606,197.498352 485.520092,201.0146 488.97913,207.763341 C492.064256,213.783936 488.740229,222.682334 491.851899,229.343661 C494.760824,235.571121 504.184165,239.69286 507.071579,246.302929 C509.855561,252.675469 506.053272,261.407277 508.778215,267.977986 C511.468833,274.465858 520.725126,278.880961 523.321007,285.412769 C525.940229,292.003158 521.868833,300.637025 524.354416,307.121236 C526.92238,313.820549 536.065172,318.426957 538.449153,324.847551 C540.985538,331.680046 536.729245,340.248924 539.008421,346.569291 C541.546636,353.606819 550.603844,358.371579 552.756705,364.509336 C555.381876,371.993089 550.983249,380.548696 552.921007,386.234279 C557.151213,398.645263 574.918261,403.203616 564.583707,408.03016 C556.436796,411.835195 553.772723,402.090114 544.575469,402.053959 C535.378215,402.017803 535.347551,408.27913 526.150297,408.243432 C516.952586,408.207277 516.983707,401.945492 507.786453,401.909336 C498.588741,401.873181 498.55762,408.134966 489.360366,408.09881 C480.164027,408.062654 480.195149,401.801327 470.999268,401.764714 C461.802014,401.729016 461.77135,407.990343 452.574096,407.954188 C443.376842,407.918032 443.407963,401.656705 434.210709,401.620549 C425.01254,401.584394 424.981419,407.846178 415.783249,407.809565 C406.584622,407.77341 406.615744,401.512082 397.417117,401.475927 C388.218947,401.439771 388.187826,407.701556 378.989657,407.6654 C369.79103,407.629245 369.821693,401.36746 360.623066,401.331304 C351.423066,401.295606 351.973181,405.519405 343.027643,407.434279 C332.763112,409.631533 330.244119,410.962426 322.142975,407.074554" id="Fill-13" fill="#41B093"></path>
                <path d="M466.040549,399.118564 L466.039634,399.118564 C465.867094,399.127735 465.717895,398.978993 465.705995,398.784943 C465.326133,392.255881 467.065721,388.834371 468.747643,385.524989 C470.460229,382.157025 472.077162,378.975789 471.708284,372.655423 C471.341236,366.335057 469.365034,363.359314 467.272586,360.209199 C465.217666,357.11492 463.092723,353.914462 462.711945,347.384943 C462.332082,340.856796 464.07167,337.435286 465.753593,334.126819 C467.466178,330.759314 469.08357,327.578535 468.714691,321.258627 C468.346728,314.938719 466.371442,311.963432 464.278993,308.814233 C462.223616,305.719954 460.09913,302.519954 459.718352,295.990892 C459.338032,289.462746 461.078078,286.041693 462.76,282.733227 C464.472128,279.365263 466.089519,276.184485 465.721098,269.865034 C465.353593,263.545584 463.377849,260.570755 461.285858,257.421556 C459.230938,254.327277 457.105538,251.128192 456.725217,244.59913 C456.345355,238.070984 458.084485,234.650847 459.766407,231.34238 C461.478993,227.975332 463.096384,224.795011 462.727506,218.476476 C462.716522,218.282883 462.846957,218.118581 463.018581,218.107157 L463.019497,218.107157 C463.192037,218.097986 463.341236,218.246728 463.353135,218.440778 C463.732998,224.968467 461.993867,228.389519 460.311945,231.697529 C458.599817,235.064577 456.982426,238.244897 457.351304,244.563432 C457.718352,250.882426 459.694096,253.857254 461.786087,257.006911 C463.841007,260.10119 465.965492,263.300275 466.34627,269.828879 C466.72659,276.358398 464.98746,279.779451 463.304622,283.087918 C461.59341,286.455423 459.976018,289.636201 460.343982,295.955195 C460.711945,302.274645 462.687689,305.249474 464.77968,308.39913 C466.8346,311.493867 468.96,314.69341 469.34032,321.222929 C469.720183,327.751533 467.981053,331.173043 466.298673,334.48151 C464.587002,337.849016 462.969611,341.030252 463.337574,347.349245 C463.705538,353.669611 465.681739,356.644439 467.773272,359.795011 C469.82865,362.889291 471.95405,366.089748 472.334371,372.619725 C472.714233,379.149245 470.975103,382.570755 469.292723,385.880137 C467.581053,389.248101 465.963661,392.429336 466.331625,398.749245 C466.342609,398.942838 466.212174,399.107597 466.040549,399.118564" id="Fill-17" fill="#035E80"></path>
                <path d="M436.868741,387.170526 C436.868741,390.942609 438.28659,394.389748 440.611991,397.001648 L485.592311,397.001648 C487.908101,394.292723 489.301236,390.772815 489.301236,386.927963 C489.301236,380.300961 485.150664,374.640092 479.309931,372.411716 C479.334188,372.037803 479.348833,371.654279 479.348833,371.270755 C479.348833,362.624531 472.338764,355.614005 463.692082,355.614005 C455.0454,355.614005 448.034874,362.624531 448.034874,371.270755 C448.034874,371.785629 448.05913,372.295469 448.107643,372.79524 C441.655469,374.392494 436.868741,380.223158 436.868741,387.170526" id="Fill-31" fill="#5FBDA4"></path>
                <path d="M249.660915,387.281373 C249.660915,391.394874 251.206911,395.153684 253.74238,398.001739 L302.79135,398.001739 C305.316293,395.047506 306.835744,391.209519 306.835744,387.016842 C306.835744,379.790297 302.309428,373.617757 295.941007,371.187551 C295.967551,370.780229 295.983112,370.361922 295.983112,369.943616 C295.983112,360.51524 288.338719,352.870389 278.909886,352.870389 C269.48151,352.870389 261.837117,360.51524 261.837117,369.943616 C261.837117,370.504714 261.863661,371.060778 261.916751,371.605858 C254.880595,373.347735 249.660915,379.705629 249.660915,387.281373" id="Fill-32" fill="#7AC4B2"></path>
                <path d="M108.613135,401.437701 L108.61222,401.437701 C108.43968,401.427231 108.308787,401.262014 108.318856,401.068421 C108.690023,394.538444 110.810847,391.338902 112.86119,388.244622 C114.948604,385.094966 116.919771,382.120137 117.278124,375.798856 C117.638307,369.478032 116.016796,366.295881 114.299176,362.926545 C112.61222,359.616705 110.868513,356.194279 111.239222,349.663844 C111.610389,343.134783 113.730755,339.935698 115.781098,336.841876 C117.868513,333.693135 119.83968,330.718307 120.198032,324.397941 C120.5573,318.077574 118.936247,314.895881 117.218627,311.527002 C115.532128,308.217162 113.788421,304.795195 114.158673,298.265675 C114.52984,291.736613 116.650664,288.537529 118.700549,285.444165 C120.787963,282.294966 122.759588,279.320137 123.117941,273.000229 C123.477666,266.68032 121.856156,263.498627 120.139451,260.130206 C118.452494,256.820824 116.707872,253.398856 117.079039,246.869794 C117.450206,240.34119 119.570114,237.142563 121.620458,234.049199 C123.707414,230.900458 125.679039,227.926545 126.037391,221.607551 C126.048375,221.413959 126.197117,221.265217 126.368741,221.27397 L126.369657,221.27397 C126.542197,221.284439 126.673089,221.449657 126.663021,221.643707 C126.291854,228.172311 124.171945,231.370481 122.121602,234.464302 C120.034645,237.612586 118.063021,240.586957 117.704668,246.90595 C117.344943,253.2254 118.966911,256.407094 120.683616,259.775515 C122.370114,263.084897 124.113822,266.506865 123.74357,273.036384 C123.372403,279.565904 121.252494,282.764989 119.201236,285.858352 C117.114737,289.008009 115.14357,291.98238 114.784302,298.301831 C114.425034,304.621739 116.047002,307.80389 117.763707,311.172311 C119.450206,314.482151 121.194828,317.904119 120.823661,324.434554 C120.452494,330.964073 118.333043,334.1627 116.281785,337.256979 C114.195286,340.405721 112.223661,343.380092 111.864851,349.7 C111.505584,356.020824 113.127551,359.202975 114.844256,362.572311 C116.530755,365.882151 118.275378,369.305034 117.904211,375.835469 C117.532586,382.365904 115.412677,385.564989 113.361876,388.659725 C111.275378,391.808924 109.303753,394.783753 108.944485,401.104577 C108.933501,401.297712 108.78476,401.446453 108.613135,401.437701" id="Fill-34" fill="#3D6ACC"></path>
                <path d="M38.0670938,390.635011 C38.0670938,393.065675 38.980595,395.28627 40.4785355,396.96865 L69.4574828,396.96865 C70.9494737,395.22357 71.8469565,392.955835 71.8469565,390.478947 C71.8469565,386.209382 69.1728146,382.562243 65.4103432,381.126545 C65.4259039,380.885812 65.4350572,380.638673 65.4350572,380.391533 C65.4350572,374.821281 60.9188101,370.304577 55.3481007,370.304577 C49.7773913,370.304577 45.2611442,374.821281 45.2611442,380.391533 C45.2611442,380.723341 45.2767048,381.051487 45.3078261,381.373684 C41.1508467,382.402975 38.0670938,386.159497 38.0670938,390.635011" id="Fill-35" fill="#6DC2AC"></path>
                <path d="M129.665172,336.158673 C119.883936,332.830069 110.345263,344.400778 103.287597,352.603066 C100.602929,355.610389 102.972265,357.535332 102.074325,322.794828 C102.436339,322.496888 106.945263,316.324805 113.740686,315.122517 C124.226728,313.242883 126.231304,305.004897 117.814828,305.657986 C113.542975,306.133501 111.558078,308.89643 109.525126,311.289565 C108.542975,312.42778 102.503158,318.070343 102.396064,317.326636 C99.9013272,299.910618 105.144348,296.394828 104.939314,287.216796 C104.899954,279.069428 101.026728,275.616796 97.8866819,281.802151 C93.1718078,291.264851 99.4258124,297.17881 98.3388558,315.390252 C86.8702059,304.683158 87.3297025,301.66897 81.2445767,299.852037 C74.7690618,298.087277 72.9553318,301.552265 77.5887414,306.192998 C84.0624256,312.664851 87.6422883,307.4946 98.1228375,320.387963 C98.1809611,320.471259 98.1480092,332.879954 98.1580778,341.133043 C93.9772998,336.948604 92.7338215,336.0946 89.0875973,333.218169 C81.5740961,327.271716 77.0834783,323.423661 69.8239817,322.398947 C61.9841648,321.376064 58.7301602,324.469886 67.6184897,329.378352 C79.7539588,335.776064 85.5457208,330.077666 98.1580778,346.791167 L98.1580778,369.530755 C86.9113959,358.97103 87.2665446,355.958215 81.2445767,354.160503 C74.7621968,352.393913 72.9617391,355.86714 77.5887414,360.501465 C84.2230664,367.133501 87.5704348,361.714279 98.1228375,374.69643 C98.1795881,374.777895 98.1493822,389.371487 98.1580778,396.85524 L102.074325,396.85524 C102.175011,358.640595 101.913227,360.91016 102.201556,360.348146 C107.814371,347.660275 119.25968,346.149062 121.811167,345.079039 C123.9027,344.324805 130.348009,341.089108 131.061053,338.994828 C131.458764,337.82595 130.833593,336.556384 129.665172,336.158673" id="Fill-36" fill="#035E80"></path>
                <path d="M430.029657,280.413272 C430.029657,280.413272 437.079542,347.776659 439.820961,397.516247 L394.781144,397.516247 L384.990297,308.611899 L384.206773,309.786728 L377.418215,397.516247 L332.509291,397.516247 L327.417757,310.17849 L430.029657,280.413272 Z" id="Fill-37" fill="#184657"></path>
                <path d="M455.976384,240.563021 L464.201098,237.919542 C464.201098,237.919542 470.859222,249.864622 473.012998,263.180412 C475.167231,276.496659 471.446407,281.490252 468.019405,282.860961 C464.592403,284.23167 455.976384,240.563021 455.976384,240.563021" id="Fill-38" fill="#F29D7E"></path>
                <g transform="translate(455.835240, 237.851259)">
                    <mask id="mask-2" fill="white">
                        <use xlink:href="#path-1"></use>
                    </mask>
                    <g id="Clip-40"></g>
                    <path d="M0.140961098,2.71167048 L8.36567506,0.0681922197 C8.36567506,0.0681922197 15.0237986,12.0132723 17.178032,25.3295195 C19.3318078,38.6453089 15.610984,43.6389016 12.1844394,45.009611 C8.75743707,46.3803204 0.140961098,2.71167048 0.140961098,2.71167048" id="Fill-39" fill="#F5B8A7" mask="url(#mask-2)"></path>
                </g>
                <path d="M353.81643,110.091625 C344.146407,111.30032 340.318947,116.336934 340.318947,116.336934 C340.318947,116.336934 319.971579,101.227551 327.224211,87.528238 C334.476384,73.8293822 346.967002,79.6714874 354.62238,85.3122197 C362.277757,90.9534096 363.217803,90.2142792 373.693318,89.6101602 C384.169291,89.0055835 391.287368,96.6609611 391.287368,107.338307 C391.287368,118.015195 399.748696,129.22984 385.243432,143.130526 C368.196751,159.466911 353.81643,110.091625 353.81643,110.091625" id="Fill-41" fill="#333333"></path>
                <path d="M391.873547,202.879771 C389.92984,205.889382 387.618169,208.97222 384.550892,211.077025 C379.671716,211.900366 374.877208,212.910892 370.298261,213.596018 C365.813593,212.764439 361.876751,210.741556 357.869428,207.968558 C350.66119,202.980458 344.72389,196.435835 338.956384,189.708146 C354.289565,181.533776 358.095057,183.961236 358.673089,177.315927 C359.311991,169.97222 351.087277,132.888009 351.087277,132.888009 L383.628696,127.858719 C383.628696,127.858719 391.087277,164.569474 393.130297,170.556201 C394.365538,174.174966 399.232357,176.014325 406.041053,177.740641 C402.21222,186.51135 397.099176,194.788696 391.873547,202.879771" id="Fill-42" fill="#FFD0C3"></path>
                <g transform="translate(351.029748, 127.553776)">
                    <mask id="mask-4" fill="white">
                        <use xlink:href="#path-3"></use>
                    </mask>
                    <g id="Clip-44"></g>
                </g>
                <path d="M361.14087,165.201693 C359.840183,165.430984 358.596705,165.542654 357.406773,165.549519 C355.032403,152.838307 352.573822,140.986133 352.573822,140.986133 L374.561465,137.503295 C376.016842,151.462105 371.512494,163.492311 361.14087,165.201693" id="Fill-45" fill="#F4B6A5"></path>
                <path d="M309.989474,253.977025 C309.989474,253.977025 308.125858,212.426911 320.070938,201.656659 C332.016476,190.88595 344.0627,186.809519 346.804577,185.43881 C349.545995,184.068101 356.008238,181.326224 356.008238,181.326224 C356.008238,181.326224 360.316247,188.963295 374.024256,187.200824 C387.731808,185.43881 396.935469,173.885034 396.935469,173.885034 C396.935469,173.885034 404.768421,177.409977 410.251716,178.584805 C415.734554,179.759634 438.254462,181.913867 447.262243,195.033776 C456.270023,208.154142 467.627918,239.290069 467.627918,239.290069 C467.627918,239.290069 460.773913,243.98984 448.24119,248.494188 C435.708467,252.99762 309.989474,253.977025 309.989474,253.977025" id="Fill-46" fill="#E85F5B"></path>
                <path d="M373.240641,191.509199 C380.150481,190.869382 391.448421,188.716979 401.359634,175.72476 C398.807689,174.727048 396.935378,173.884943 396.935378,173.884943 C396.935378,173.884943 387.731716,185.438719 374.024165,187.200732 C360.316156,188.963661 356.008146,181.326133 356.008146,181.326133 C356.008146,181.326133 354.180686,182.101419 352.056659,183.033684 C357.413638,190.966407 366.514325,192.132082 373.240641,191.509199" id="Fill-47" fill="#E289A9"></path>
                <path d="M251.483066,146.487231 C256.965904,143.158169 258.859268,134.345812 256.052403,129.907368 C253.959039,126.597529 249.079863,125.653364 248.741648,122.335744 C248.088558,115.93849 239.602975,109.803021 232.161785,112.022243 C222.578261,114.880366 218.897712,110.743524 214.73341,104.711487 C210.258352,98.2291076 207.879405,91.7870023 192.409382,91.7870023 C176.939359,91.7870023 172.826773,89.2414645 171.260183,81.6043936 C169.693593,73.966865 156.965446,65.7426087 142.669794,72.4007323 C128.375057,79.0583982 123.087643,85.3247597 115.05881,80.6249886 C107.029977,75.9252174 99.1970252,69.4634325 90.1892449,76.1210984 C81.1814645,82.779222 84.7059497,99.4240732 94.693135,100.990664 C104.68032,102.557712 97.6304348,113.523844 93.7141876,120.18151 C89.7974828,126.839634 95.280778,138.981053 108.596568,136.826819 C121.912815,134.672586 124.06659,138.784714 127.00389,146.030481 C129.941648,153.275789 140.711899,154.84238 146.586499,151.90508 C152.461098,148.96778 159.315103,147.009428 165.973227,152.884485 C172.630892,158.759085 174.589245,162.088146 183.988787,159.933913 C193.38833,157.77968 194.889931,159.411716 199.393822,162.936201 C203.897712,166.461144 214.537529,164.437803 214.537529,164.437803 L251.483066,146.487231 Z" id="Fill-48" fill="#5B1902"></path>
                <path d="M228.739771,155.872723 L230.725584,148.314828 L204.354874,142.831991 C191.299497,134.215515 187.905446,135.782105 178.245034,136.565172 C168.584165,137.348696 171.717346,126.64389 162.57913,121.682792 C153.440458,116.722151 150.046407,125.076842 141.168604,123.249382 C132.291259,121.421922 136.468833,113.066773 124.980961,111.761053 C114.131991,110.528101 111.425355,118.369748 96.427643,115.509794 C95.5100229,117.17341 94.5420595,118.773867 93.7141419,120.181648 C89.7974371,126.839771 95.2807323,138.980732 108.596979,136.826499 C121.912769,134.672723 124.067002,138.784851 127.004302,146.030618 C129.941602,153.275927 140.711854,154.842517 146.586453,151.905217 C152.46151,148.967918 159.315057,147.009565 165.973181,152.884165 C172.631304,158.759222 174.589199,162.088284 183.988741,159.93405 C193.388741,157.779817 194.629016,158.889199 199.132906,162.414142 C203.636796,165.939085 213.754416,165.286453 213.754416,165.286453 L228.739771,155.872723 Z" id="Fill-49" fill="#380E00"></path>
                <path d="M228.524805,206.836339 C228.016339,199.587826 236.525263,161.294462 236.525263,161.294462 L206.126636,156.504531 C206.126636,156.504531 198.339451,194.424897 196.353638,200.348009 C194.368284,206.271121 183.149062,207.439085 169.733043,211.26151 C167.8946,211.78508 165.998947,212.615744 164.063478,213.718719 C165.167368,218.520549 167.241053,223.138398 169.386133,227.517346 C171.74357,232.329245 174.304211,237.032677 176.61405,241.860595 C188.643799,250.256476 201.090023,247.818947 213.970572,249.734279 C218.309703,250.379588 230.306499,244.150755 234.07492,245.034508 C240.552723,236.791487 243.075378,228.896293 248.483616,219.913227 C232.850206,210.782334 229.002151,213.642746 228.524805,206.836339" id="Fill-50" fill="#FFD6CB"></path>
                <g transform="translate(194.508009, 156.386728)">
                    <mask id="mask-6" fill="white">
                        <use xlink:href="#path-5"></use>
                    </mask>
                    <g id="Clip-52"></g>
                </g>
                <path d="M211.012723,169.072174 C211.908833,174.703753 216.700137,190.61405 230.172906,193.574691 C231.388467,186.837849 232.785263,179.678124 233.960092,173.815423 L211.012723,169.072174 Z" id="Fill-53" fill="#F4B6A5"></path>
                <path d="M221.189519,154.363387 C219.193638,159.844851 213.132311,162.670938 207.650847,160.675515 C202.168924,158.679634 199.343295,152.618307 201.338719,147.136384 C203.3346,141.65492 209.395927,138.828833 214.877391,140.824714 C220.359314,142.820137 223.184943,148.881465 221.189519,154.363387" id="Fill-54" fill="#FFD6CB"></path>
                <path d="M216.494554,152.654096 C215.442838,155.542883 212.248787,157.032128 209.36,155.980412 C206.471213,154.928696 204.981968,151.734645 206.033684,148.845858 C207.0854,145.957071 210.279451,144.467826 213.168238,145.519542 C216.057025,146.571259 217.54627,149.765309 216.494554,152.654096" id="Fill-55" fill="#F4B6A5"></path>
                <path d="M248.756659,164.147368 C243.663753,178.136384 235.459176,187.892449 221.325995,182.649428 C213.232174,179.646682 206.432174,164.582151 211.52508,150.592677 C216.617986,136.603661 222.630801,127.277346 239.603341,132.126773 C256.052311,136.826545 253.849565,150.158352 248.756659,164.147368" id="Fill-56" fill="#FFD6CB"></path>
                <path d="M227.989703,153.459268 C227.726087,154.183753 226.925629,154.556751 226.201602,154.293135 C225.477117,154.029519 225.104119,153.229062 225.367735,152.505034 C225.63135,151.780549 226.431808,151.407551 227.155835,151.671167 C227.879863,151.934325 228.253318,152.73524 227.989703,153.459268" id="Fill-57" fill="#000000"></path>
                <path d="M246.093684,159.624348 C245.831899,160.342883 245.037391,160.713135 244.318856,160.451808 C243.599863,160.190023 243.229611,159.395515 243.490938,158.676979 C243.752723,157.957986 244.547689,157.587735 245.266224,157.849519 C245.98476,158.110847 246.355469,158.905812 246.093684,159.624348" id="Fill-58" fill="#000000"></path>
                <path d="M236.072265,156.739314 L237.595835,164.553959 C237.775698,165.477986 236.923066,166.270206 236.0146,166.022609 L231.873181,164.893089 L236.072265,156.739314 Z" id="Fill-61" fill="#FABCAC"></path>
                <path d="M207.976659,157.666728 C207.80778,158.130343 207.295195,158.369245 206.832037,158.200366 C206.368421,158.031487 206.129519,157.518902 206.298398,157.055744 C206.466819,156.592128 206.979405,156.353227 207.443021,156.522105 C207.906636,156.690526 208.145538,157.203112 207.976659,157.666728" id="Fill-62" fill="#1B4E61"></path>
                <path d="M218.910801,149.457071 C223.219268,147.890481 224.589977,137.120229 230.660458,136.337162 C236.730938,135.553638 237.351076,140.36508 243.813318,139.861648 C251.352449,139.274462 252.200961,144.7573 252.200961,144.7573 C252.200961,144.7573 252.625217,138.392998 242.63849,132.714279 C232.651304,127.035103 221.065034,124.979268 213.623844,130.462105 C211.184027,132.259817 211.437117,137.386133 208.760686,139.078581 C202.102563,143.28865 200.976705,148.086362 200.976705,148.086362 C208.809657,152.982014 214.602792,151.023661 218.910801,149.457071 Z" id="Fill-63" fill="#F4B6A5"></path>
                <path d="M203.14714,142.015789 C210.980092,146.911442 214.113272,148.478032 218.421281,146.911442 C222.729748,145.344851 224.100458,134.5746 230.170938,133.791076 C236.241419,133.008009 236.624027,137.928833 243.095423,138.295423 C250.014416,138.686728 251.711442,142.21167 251.711442,142.21167 C251.711442,142.21167 256.019451,134.378719 246.032723,128.7 C236.045538,123.020824 220.575515,122.433181 213.134325,127.916476 C205.692677,133.399771 203.14714,142.015789 203.14714,142.015789" id="Fill-64" fill="#5B1902"></path>
                <path d="M262.925172,397.516064 L127.806636,397.516064 C127.806636,397.516064 146.867963,318.403021 166.450572,278.976018 C185.641419,283.742151 214.164989,284.983799 233.293135,279.759085 C233.293135,279.759085 261.620824,353.913776 262.925172,397.516064" id="Fill-65" fill="#E85F5B"></path>
                <path d="M245.825721,262.789108 C244.983616,269.865995 233.292998,279.759359 233.292998,279.759359 C214.164851,284.983616 185.641281,283.742426 166.450435,278.975835 C166.450435,278.975835 164.22984,261.743341 160.055011,252.085217 C160.055011,252.085217 159.138307,243.72778 152.351121,236.677895 C148.489336,232.667368 145.885217,231.594142 144.357529,231.414279 C143.758444,231.343799 143.464622,230.650435 143.848604,230.184531 C146.217941,227.313593 151.027551,221.665995 155.484302,218.336934 C159.957071,214.99643 166.391854,211.67103 169.767597,210.617483 C170.27286,210.460961 170.793684,210.805584 170.848604,211.334188 C171.357986,216.453181 174.346087,240.088879 186.033043,243.40238 C199.152952,247.123204 236.163936,242.227551 236.163936,242.227551 C236.163936,242.227551 247.130069,251.822975 245.825721,262.789108" id="Fill-66" fill="#236780"></path>
                <path d="M144.356522,231.413959 C145.885126,231.595195 148.489703,232.669336 152.35103,236.678947 C159.139588,243.728833 160.053547,252.083982 160.053547,252.083982 C160.212815,252.451945 160.368421,252.832265 160.522197,253.220824 C161.285584,252.411213 162.09016,251.522426 162.9254,250.550343 C168.310755,244.283524 163.875973,236.221739 160.771625,233.317391 C157.989931,230.715561 153.229291,227.544851 146.726316,226.806178 C145.583982,228.101373 144.595423,229.280778 143.850343,230.183753 C143.465904,230.649657 143.756979,231.343021 144.356522,231.413959" id="Fill-67" fill="#184657"></path>
                <path d="M165.305126,256.69373 C164.024119,250.885034 162.631899,246.388924 162.631899,246.388924 L158.376522,246.057117 C159.771945,249.530343 160.05341,252.084119 160.05341,252.084119 C161.663021,255.805858 162.981098,260.650709 163.994371,265.201281 C164.920686,262.491899 165.22595,259.491899 165.305126,256.69373" id="Fill-68" fill="#F4B6A5"></path>
                <path d="M229.589977,210.389703 C225.422014,213.392906 219.883799,215.008009 213.448101,215.008009 C206.257254,215.008009 197.670526,211.57643 193.259542,204.002975 C193.048101,204.14119 192.827048,204.275744 192.597757,204.407551 C196.678764,211.326087 204.668238,215.791076 213.448101,215.791076 C220.094783,215.791076 225.820183,214.103204 230.130023,210.965904 C229.92865,210.787414 229.749245,210.596568 229.589977,210.389703" id="Fill-69" fill="#FAF8DC"></path>
                <path d="M177.220778,242.717071 C183.976842,249.473135 193.082563,249.571076 207.083936,248.689611 C218.466087,247.973364 233.795606,246.027368 239.131991,245.324851 C237.472952,243.373822 236.164027,242.227368 236.164027,242.227368 C236.164027,242.227368 199.153043,247.123021 186.032677,243.402654 C174.344348,240.08778 171.359451,216.452082 170.846865,211.333089 C170.794233,210.806316 170.274325,210.46032 169.769062,210.617757 C168.851442,210.903799 167.704073,211.361922 166.436339,211.938124 C168.272494,222.66032 170.909108,236.4054 177.220778,242.717071" id="Fill-70" fill="#184657"></path>
                <path d="M224.961236,146.657941 C225.386865,146.581053 225.817986,146.520641 226.250938,146.464805 C226.685721,146.451076 227.123707,146.403478 227.562151,146.431854 C228.440412,146.453822 229.3173,146.602563 230.169474,146.846957 C231.014325,147.116979 231.831259,147.49135 232.559863,148.002563 C233.28984,148.51286 233.936064,149.131167 234.401053,149.914691 C234.451396,149.999359 234.423478,150.109199 234.338352,150.159542 C234.263753,150.203936 234.169931,150.18746 234.114096,150.125217 L234.099908,150.109657 C233.56032,149.508284 232.880229,149.003021 232.183661,148.583341 C231.477941,148.166407 230.722792,147.841465 229.940641,147.59524 C229.544302,147.487231 229.150709,147.368238 228.742014,147.303707 C228.340641,147.206224 227.927368,147.17373 227.515469,147.116979 C227.10357,147.062517 226.685263,147.064805 226.266957,147.02865 C225.847735,147.014462 225.427597,147.032769 225.00151,147.014005 L224.985492,147.013547 C224.886636,147.009428 224.809748,146.925217 224.813867,146.826819 C224.817529,146.741236 224.880686,146.672586 224.961236,146.657941" id="Fill-92" fill="#000000"></path>
                <path d="M242.034096,152.836201 C242.420366,152.765721 242.811213,152.718124 243.203432,152.663661 C243.597025,152.645355 243.992906,152.610114 244.389703,152.619268 C245.183295,152.635286 245.981465,152.715378 246.761785,152.905767 C247.538902,153.100732 248.303204,153.375332 249.005263,153.776247 C249.706407,154.178535 250.351716,154.671899 250.840961,155.351991 C250.898169,155.431625 250.88032,155.543753 250.800229,155.600961 C250.730664,155.650847 250.637757,155.643982 250.57643,155.589062 L250.558581,155.573043 C250.019451,155.089291 249.351259,154.707597 248.687185,154.390435 C248.012128,154.078764 247.302746,153.843524 246.577803,153.666407 L246.030892,153.541465 C245.847368,153.503478 245.660183,153.484256 245.475744,153.449016 C245.107323,153.371213 244.729291,153.357941 244.354462,153.305309 C243.978261,153.268696 243.598398,153.259085 243.218078,153.227048 C242.836384,153.212403 242.454233,153.217895 242.067506,153.193181 L242.054691,153.192265 C241.955835,153.185858 241.880778,153.100732 241.886728,153.001419 C241.89222,152.917666 241.95492,152.850847 242.034096,152.836201" id="Fill-93" fill="#000000"></path>
                <path d="M236.459314,170.413684 C236.286773,171.097895 233.531167,171.793089 230.708284,170.92627 C227.8854,170.058993 226.035515,168.110252 226.236888,167.273638 C226.477162,166.275011 228.279451,168.853501 231.102334,169.72032 C233.925217,170.587597 236.719725,169.381648 236.459314,170.413684" id="Fill-94" fill="#ED6D53"></path>
                <path d="M430.985126,195.909977 L319.726087,216.142014 L208.467048,195.909977 C204.994279,195.278398 201.797483,197.94659 201.797483,201.476568 L201.797483,338.131487 C201.797483,340.866041 203.752632,343.208833 206.442792,343.698078 L319.725629,364.298535 L319.725629,364.298535 L319.726087,364.298535 L319.87849,364.325995 L319.87849,364.270618 L433.009382,343.698078 C435.7,343.208833 437.654691,340.866041 437.654691,338.131487 L437.654691,201.476568 C437.654691,197.94659 434.457895,195.278398 430.985126,195.909977" id="Fill-95" fill="#4D8499"></path>
                <path d="M430.985126,197.084989 L319.726087,217.317025 L208.467048,197.084989 C204.994279,196.45341 201.797483,199.121602 201.797483,202.651579 L201.797483,339.306957 C201.797483,342.041053 203.752632,344.384302 206.442792,344.873089 L319.725629,365.473547 L319.725629,365.473547 L319.726087,365.473547 L319.87849,365.501007 L319.87849,365.445629 L433.009382,344.873089 C435.7,344.384302 437.654691,342.041053 437.654691,339.306957 L437.654691,202.651579 C437.654691,199.121602 434.457895,196.45341 430.985126,197.084989" id="Fill-96" fill="#184657"></path>
                <polygon id="Fill-97" fill="#FFFFFF" points="319.756979 357.778673 209.167963 337.871579 209.167963 204.704073 319.700229 224.804302"></polygon>
                <polygon id="Fill-98" fill="#FDD076" points="301.327002 338.857941 262.175515 331.802105 262.168192 295.008055 301.31373 302.083112"></polygon>
                <path d="M254.990755,325.248879 L226.379314,320.090526 L226.379771,325.350481 L254.99167,330.507002 L254.990755,325.248879 Z M254.988009,309.758261 L226.378398,304.593959 L226.378856,309.853455 L254.988924,315.015927 L254.988009,309.758261 Z M254.985263,293.710206 L226.377483,288.539954 L226.377483,293.798535 L254.986178,298.966957 L254.985263,293.710206 Z M301.307918,284.895561 L226.37611,271.335378 L226.37611,276.593501 L301.309748,290.149108 L301.307918,284.895561 Z M301.302426,269.685034 L226.375195,256.109748 L226.375195,261.367414 L301.304256,274.937208 L301.302426,269.685034 Z M301.296934,254.475881 L226.374279,240.88595 L226.374279,246.1427 L301.298764,259.727597 L301.296934,254.475881 Z M301.293272,244.519817 L226.373364,230.919817 L226.373364,225.663524 L301.291442,239.268558 L301.293272,244.519817 Z" id="Fill-99" fill="#184657"></path>
                <polygon id="Fill-100" fill="#E6E5CE" points="430.283982 337.877162 319.725172 357.98151 319.725172 224.80897 430.283982 204.704165"></polygon>
                <polygon id="Fill-101" fill="#FCC14A" points="391.996339 264.017986 337.302975 273.963524 337.302975 239.206545 391.996339 229.261007"></polygon>
                <path d="M411.841144,225.901419 L398.133593,228.394325 L398.133593,232.844211 L411.841144,230.351762 L411.841144,225.901419 Z M411.841144,316.246957 L336.911625,329.872586 L336.911625,335.13254 L411.841144,321.506911 L411.841144,316.246957 Z M411.841144,301.015835 L336.911625,314.641465 L336.911625,319.901419 L411.841144,306.275789 L411.841144,301.015835 Z M411.841144,285.784714 L336.911625,299.410343 L336.911625,304.670297 L411.841144,291.044668 L411.841144,285.784714 Z M411.841144,275.813547 L336.911625,289.439176 L336.911625,284.179222 L411.841144,270.553593 L411.841144,275.813547 Z" id="Fill-102" fill="#184657"></path>
                <path d="M439.429245,212.396934 C446.406362,213.477483 450.264943,215.39968 454.572952,225.190984 C458.703844,234.579085 467.639771,253.818902 470.280503,266.065584 C472.921236,278.312265 472.283249,284.699908 462.985309,285.080229 C452.6146,285.504485 444.846178,263.262838 443.219176,252.820732 C441.518032,241.901281 439.29881,231.979542 439.29881,231.979542 C439.29881,231.979542 434.992632,231.651396 431.204531,230.673822 C427.410481,229.694416 423.937254,232.945675 422.710252,231.064211 C421.483707,229.182746 425.521236,226.205629 430.849382,226.29167 C430.849382,226.29167 428.224668,225.475652 424.522151,226.340641 C420.819634,227.205629 419.6027,227.360778 419.210023,225.945675 C418.817346,224.530572 423.52627,222.166728 426.81643,222.086636 C430.107048,222.006545 431.760137,221.811579 431.760137,221.811579 C431.760137,221.811579 425.896522,220.675195 422.943661,222.044073 C419.990343,223.412037 417.620092,224.90357 416.862654,223.345675 C416.10507,221.78778 420.171579,218.647277 424.690572,217.575423 C429.209565,216.504027 430.212769,216.896247 430.212769,216.896247 C430.212769,216.896247 424.591259,216.485721 421.582563,217.726911 C418.573867,218.968558 417.309794,220.051396 416.318032,218.822563 C415.326728,217.59373 417.87135,215.11913 422.386224,213.520503 C426.901556,211.921876 431.267689,211.13286 439.429245,212.396934" id="Fill-103" fill="#FFD6CB"></path>
                <path d="M217.410206,310.605126 C221.459176,310.044027 225.830801,309.027551 225.38778,307.271487 C225.032632,305.861419 222.159863,305.675606 219.052769,305.909931 C221.396476,305.32 223.237208,304.508101 222.894874,303.433959 C222.031716,300.725034 207.4427,303.063249 207.4427,303.063249 C207.4427,303.063249 210.252769,301.735103 211.22897,301.235789 C212.76032,300.451808 214.611579,298.953867 212.860549,297.841739 C211.109977,296.729611 202.286178,299.538764 190.047277,303.91222 C177.13286,305.35524 145.985492,303.693455 145.985492,303.693455 C145.985492,303.693455 145.473822,296.101236 149.491213,278.723661 C151.502654,270.021602 159.054142,253.712677 162.631716,246.389108 C162.623021,246.368513 162.582288,241.223432 154.847735,235.226636 C150.490755,231.848604 145.591442,231.494828 144.071533,231.393684 C135.360778,242.811076 128.899908,257.383616 126.239954,271.521373 C121.462838,296.911304 121.980915,318.748833 137.244531,324.277437 C152.508604,329.805584 194.091213,322.873318 198.9173,322.211533 C203.743844,321.549748 220.872906,320.060961 220.475652,317.164851 C220.275195,315.703982 217.929199,315.2573 215.653684,315.173089 C219.743387,314.883844 225.192815,314.140137 225.084805,312.230297 C224.994188,310.628467 221.093043,310.43167 217.410206,310.605126" id="Fill-108" fill="#FFD6CB"></path>
                <path d="M360.718627,393.207826 L278.842654,393.207826 C276.902151,393.207826 275.328696,394.781281 275.328696,396.722243 L275.328696,397.516293 L364.232586,397.516293 L364.232586,396.722243 C364.232586,394.781281 362.659588,393.207826 360.718627,393.207826" id="Fill-114" fill="#184657"></path>
                <polygon id="Fill-115" fill="#CBC7FF" points="299.326728 318.041327 288.356476 352.277025 319.976613 358.647277 351.785767 352.151625 340.18714 318.041327"></polygon>
                <path d="M319.976522,344.810526 C313.379268,344.810526 308.031442,350.15881 308.031442,356.756064 C308.031442,363.35286 313.379268,368.701144 319.976522,368.701144 C326.573776,368.701144 331.921602,363.35286 331.921602,356.756064 C331.921602,350.15881 326.573776,344.810526 319.976522,344.810526 L319.976522,344.810526 Z M342.822746,391.771625 L294.649748,392.032952 L300.393913,322.189016 L337.302838,323.494279 L342.822746,391.771625 Z" id="Fill-116" fill="#4D8499"></path>
                <path d="M319.976522,346.702197 C313.379268,346.702197 308.031442,352.050481 308.031442,358.647277 C308.031442,365.244531 313.379268,370.592815 319.976522,370.592815 C326.573776,370.592815 331.921602,365.244531 331.921602,358.647277 C331.921602,352.050481 326.573776,346.702197 319.976522,346.702197 L319.976522,346.702197 Z M347.252037,397.515927 L292.261648,397.515927 L299.326636,318.041327 L340.187048,318.041327 L347.252037,397.515927 Z" id="Fill-117" fill="#035E80"></path>
                <polygon id="Fill-118" fill="#4D8499" points="340.350069 319.871762 340.187597 318.041098 299.326728 318.041098 299.164256 319.871762"></polygon>
                <path d="M543.488604,497.805492 L56.0565675,497.805492 C25.0972998,497.805492 0.000274599542,472.708009 0.000274599542,441.748741 L0.000274599542,397.516247 L599.545355,397.516247 L599.545355,441.748741 C599.545355,472.708009 574.447872,497.805492 543.488604,497.805492" id="Fill-119" fill="#FCFBED"></path>
                <path d="M445.830206,119.443341 C448.546453,119.443341 450.748284,117.24151 450.748284,114.525263 C450.748284,111.809016 448.546453,109.607185 445.830206,109.607185 C445.691076,109.607185 445.553776,109.616796 445.417391,109.628238 C444.411442,106.747689 441.672311,104.68087 438.44897,104.68087 C435.217849,104.68087 432.473684,106.757757 431.473684,109.648833 C431.274142,109.624119 431.072311,109.607185 430.866819,109.607185 C430.087414,109.607185 429.353318,109.793455 428.698398,110.11611 C427.630206,108.126178 425.530892,106.772403 423.114416,106.772403 C419.615561,106.772403 416.778947,109.609016 416.778947,113.107872 C416.778947,116.606728 419.615561,119.443341 423.114416,119.443341 L445.830206,119.443341 Z" id="Fill-144" fill="#9FD4E0"></path>
                <path d="M307.137208,141.525309 C308.701053,141.525309 309.969245,140.257117 309.969245,138.693272 C309.969245,137.129428 308.701053,135.861236 307.137208,135.861236 C307.057117,135.861236 306.977941,135.866728 306.89968,135.873135 C306.320275,134.214554 304.743158,133.024165 302.886865,133.024165 C301.025995,133.024165 299.446133,134.220503 298.869931,135.885034 C298.755057,135.870847 298.639268,135.861236 298.520732,135.861236 C298.071762,135.861236 297.649336,135.96833 297.27222,136.154142 C296.657117,135.008604 295.447963,134.229199 294.056659,134.229199 C292.041556,134.229199 290.408604,135.862151 290.408604,137.877254 C290.408604,139.891899 292.041556,141.525309 294.056659,141.525309 L307.137208,141.525309 Z" id="Fill-145" fill="#B5DEE7"></path>
                <path d="M287.066499,19.4338673 C283.668787,19.4338673 280.914554,16.6796339 280.914554,13.2823799 C280.914554,9.88466819 283.668787,7.13043478 287.066499,7.13043478 C287.24087,7.13043478 287.412037,7.1423341 287.582746,7.15652174 C288.84087,3.55331808 292.267414,0.967963387 296.299451,0.967963387 C300.341098,0.967963387 303.77405,3.56567506 305.024851,7.18169336 C305.274279,7.15102975 305.526453,7.13043478 305.783661,7.13043478 C306.75849,7.13043478 307.677025,7.36292906 308.495789,7.76659039 C309.832174,5.2778032 312.458261,3.58443936 315.481144,3.58443936 C319.857803,3.58443936 323.405629,7.13272311 323.405629,11.5093822 C323.405629,15.8860412 319.857803,19.4338673 315.481144,19.4338673 L287.066499,19.4338673 Z" id="Fill-146" fill="#9FD4E0"></path>
                <path d="M196.585538,63.3826087 C200.376384,63.3826087 203.449611,60.3093822 203.449611,56.5185355 C203.449611,52.7276888 200.376384,49.6544622 196.585538,49.6544622 C195.761281,49.6544622 194.974554,49.806865 194.242746,50.0732265 C193.049153,45.5185355 188.905904,42.1578947 183.976842,42.1578947 C179.208421,42.1578947 175.175011,45.3029748 173.836796,49.6320366 C172.728787,48.9707094 171.438169,48.5839817 170.054188,48.5839817 C165.967689,48.5839817 162.654645,51.8965675 162.654645,55.983524 C162.654645,60.0700229 165.967689,63.3826087 170.054188,63.3826087 L196.585538,63.3826087 Z" id="Fill-147" fill="#9FD4E0"></path>
                <path d="M371.337254,130.927231 C372.296522,136.746911 377.792174,140.687872 383.611854,139.728604 C389.431991,138.769336 393.372494,133.273684 392.413227,127.454005 C391.454416,121.633867 385.958764,117.693364 380.138627,118.652632 C374.31849,119.611442 370.377986,125.107094 371.337254,130.927231" id="Fill-148" fill="#FFD0C3"></path>
                <path d="M376.321968,130.105767 C376.827231,133.172586 379.723341,135.249474 382.790618,134.743753 C385.857437,134.23849 387.934325,131.34238 387.428604,128.275103 C386.923341,125.208284 384.027231,123.131854 380.960412,123.637117 C377.893135,124.142838 375.816705,127.03849 376.321968,130.105767" id="Fill-149" fill="#FABCAC"></path>
                <path d="M342.309977,135.536522 C344.757574,150.389153 348.611121,162.035378 362.841785,159.524622 C375.374508,156.979085 384.287551,143.874737 381.839954,129.022105 C379.391899,114.169474 371.609291,102.607918 355.599222,105.416156 C336.350709,108.792357 339.86238,120.68389 342.309977,135.536522" id="Fill-150" fill="#FFD6CB"></path>
                <path d="M362.823295,127.752403 C362.958764,128.573455 363.73405,129.129519 364.555561,128.99405 C365.376613,128.859039 365.932677,128.083295 365.797666,127.262243 C365.662197,126.440732 364.886453,125.884668 364.0654,126.020137 C363.24389,126.155606 362.687826,126.930892 362.823295,127.752403" id="Fill-151" fill="#000000"></path>
                <path d="M343.90778,130.82357 C344.026773,131.54714 344.710069,132.036842 345.433181,131.917391 C346.156751,131.798398 346.646453,131.115561 346.527002,130.391991 C346.408009,129.668879 345.725172,129.178719 345.001602,129.298169 C344.27849,129.417162 343.788787,130.100458 343.90778,130.82357" id="Fill-152" fill="#000000"></path>
                <path d="M354.174325,128.063478 L350.859908,137.85524 C350.468146,139.013135 351.42833,140.180183 352.640229,140.019085 L358.164714,139.283158 L354.174325,128.063478 Z" id="Fill-155" fill="#FABCAC"></path>
                <path d="M380.332586,120.762517 L381.83968,129.022014 L378.949977,129.664577 C378.810847,127.590892 377.430069,122.679222 376.95135,121.070069 L380.332586,120.762517 Z" id="Fill-156" fill="#333333"></path>
                <path d="M370.121327,121.499039 C369.607368,121.481648 369.116293,121.412082 368.626133,121.3654 L367.892494,121.317803 C367.649016,121.304989 367.409657,121.265629 367.167551,121.27341 C366.684714,121.274325 366.208741,121.228101 365.7346,121.267002 C365.259085,121.262426 364.791808,121.313684 364.324073,121.355332 C363.393638,121.463341 362.480137,121.653272 361.5854,121.929703 C360.701648,122.208421 359.79913,122.595606 358.999588,123.049153 L358.938719,123.083478 C358.727735,123.202929 358.460458,123.129245 358.341007,122.918719 C358.253593,122.764485 358.270069,122.579588 358.367094,122.445034 C359.05222,121.498581 359.952449,120.862426 360.947414,120.368146 C361.071442,120.307735 361.194096,120.241373 361.320412,120.185538 L361.707597,120.039542 L362.096156,119.893089 L362.49341,119.7773 C363.02476,119.619863 363.570755,119.541144 364.114462,119.458764 C365.208741,119.361739 366.308513,119.395149 367.367094,119.609794 C367.899817,119.693089 368.409199,119.877071 368.92087,120.02032 C369.419725,120.211625 369.908513,120.423066 370.379908,120.663341 C370.597757,120.774554 370.684256,121.041373 370.573043,121.259222 C370.492494,121.416659 370.330481,121.505904 370.164348,121.500412 L370.121327,121.499039 Z" id="Fill-157" fill="#333333"></path>
                <path d="M349.87524,124.476339 C349.455103,124.519359 349.050069,124.519359 348.64778,124.52119 C348.247323,124.524394 347.851899,124.55643 347.46151,124.548192 L346.310481,124.618673 C345.940686,124.676796 345.55762,124.678169 345.203844,124.76238 C344.476156,124.872677 343.79103,125.063982 343.157162,125.34865 C342.849611,125.502883 342.534737,125.66032 342.258307,125.872677 C341.970892,126.059863 341.695835,126.336293 341.478444,126.553684 L341.381419,126.650252 C341.21254,126.81913 340.939314,126.81913 340.770892,126.650252 C340.667918,126.546819 340.628558,126.402197 340.651442,126.268101 C340.750755,125.722105 340.971808,125.319817 341.255103,124.91524 C341.393776,124.712952 341.5654,124.546819 341.73016,124.365126 C341.904989,124.199908 342.095378,124.050252 342.286682,123.903341 C343.069748,123.336751 343.987368,123.014096 344.888513,122.879085 C345.342975,122.782975 345.79103,122.79167 346.241373,122.767872 C346.686224,122.782975 347.13016,122.81135 347.564027,122.875881 C347.994233,122.9546 348.423524,123.03881 348.839542,123.157346 C349.250526,123.298307 349.658764,123.436979 350.051899,123.619588 C350.276613,123.723936 350.374096,123.990755 350.270206,124.215469 C350.201098,124.363753 350.06151,124.456659 349.910023,124.472677 L349.87524,124.476339 Z" id="Fill-158" fill="#333333"></path>
                <path d="M362.601831,143.199542 C362.892906,144.940961 360.77849,146.745995 357.878261,147.231121 C354.97849,147.716247 352.391304,146.697941 352.099771,144.956064 C351.808696,143.214645 354.415103,144.115789 357.314874,143.630664 C360.215103,143.145538 362.310755,141.458124 362.601831,143.199542" id="Fill-159" fill="#ED6D53"></path>
                <path d="M357.810069,107.125263 L353.949199,105.738993 C340.256751,109.981098 340.452097,116.639222 340.452097,119.706957 C340.466819,119.703295 354.616934,113.962792 357.810069,107.125263" id="Fill-160" fill="#F4B6A5"></path>
                <path d="M374.943387,99.9420595 L346.135149,98.9347368 L338.077025,110.418032 L340.494416,116.662883 C341.04087,115.569977 341.255515,113.745263 343.135149,111.886682 C346.561236,112.723753 350.258719,112.127414 351.977254,111.526041 C353.389153,111.031762 356.233089,108.560824 357.810206,107.125126 C361.563524,107.338398 365.072906,108.598352 366.213867,110.619405 C370.914096,118.946178 374.300824,113.96357 376.951167,121.070206 L380.332403,120.762654 L374.943387,99.9420595 Z" id="Fill-161" fill="#333333"></path>
            </g>
        </g>
    </g>
</svg>